<?xml version="1.0" encoding="utf-8"?>
<!-- Generator: Adobe Illustrator 18.0.0, SVG Export Plug-In . SVG Version: 6.00 Build 0)  -->
<!DOCTYPE svg PUBLIC "-//W3C//DTD SVG 1.1//EN" "http://www.w3.org/Graphics/SVG/1.1/DTD/svg11.dtd">
<svg version="1.1" id="Layer_1" xmlns="http://www.w3.org/2000/svg" xmlns:xlink="http://www.w3.org/1999/xlink" x="0px" y="0px"
	 viewBox="0 0 1000 1000" enable-background="new 0 0 1000 1000" xml:space="preserve">
<line fill="none" x1="453" y1="655.6" x2="459.9" y2="655.6"/>
<g>
	<path fill="#9ACA3C" d="M500,1000c276.2,0,500-223.9,500-500S776.2,0,500,0C223.8,0,0,223.9,0,500S223.8,1000,500,1000"/>
	<path fill="#FFFFFF" d="M574.7,293.5l5.4-8.2l5.4-8.1l12.1-18.1c1.5-2.2,0.9-5.2-1.4-6.7c-2.2-1.5-5.2-0.9-6.7,1.4l-13,19.4
		l-5.4,8.1l-5.5,8.3c-17.5-6.8-37-10.6-57.6-10.6c-20.6,0-40.1,3.8-57.6,10.6l-5.5-8.3l-5.4-8.1l-13-19.4c-1.5-2.2-4.5-2.8-6.7-1.4
		c-2.2,1.5-2.8,4.5-1.4,6.7l12.1,18.1l5.4,8.1l5.5,8.2c-41.1,19.1-68.9,55.3-68.9,96.9h271C643.5,348.9,615.7,312.6,574.7,293.5z
		 M450,351.7c-8,0-14.5-6.5-14.5-14.5c0-8,6.5-14.5,14.5-14.5c8,0,14.5,6.5,14.5,14.5C464.5,345.1,458,351.7,450,351.7z
		 M566.1,351.7c-8,0-14.5-6.5-14.5-14.5c0-8,6.5-14.5,14.5-14.5c8,0,14.5,6.5,14.5,14.5C580.6,345.1,574.1,351.7,566.1,351.7z"/>
	<path fill="#FFFFFF" d="M374.7,409.7h-2.1v24.1v19.7v169.1c0,16.9,13.8,30.7,30.7,30.7h22.1c-0.7,2.6-1.1,5.3-1.1,8.1v1.6v9.7v50
		c0,16,13,29.1,29,29.1c16,0,29.1-13,29.1-29.1v-50V663v-1.6c0-2.8-0.4-5.5-1.2-8.1H535c-0.7,2.6-1.1,5.3-1.1,8.1v1.6v9.7v50
		c0,16,13,29.1,29,29.1c16,0,29.1-13,29.1-29.1v-50V663v-1.6c0-2.8-0.4-5.5-1.2-8.1h22.1c16.9,0,30.6-13.7,30.6-30.7V453.6v-19.7
		v-24.1h-2.1H374.7z"/>
	<path fill="#FFFFFF" d="M324.2,409.7c-16,0-29.1,13-29.1,29v124.2c0,16,13,29.1,29.1,29.1c16,0,29-13,29-29.1V438.7
		C353.2,422.7,340.2,409.7,324.2,409.7z"/>
	<path fill="#FFFFFF" d="M691.9,409.7c-16,0-29.1,13-29.1,29v124.2c0,16,13,29.1,29.1,29.1c16,0,29-13,29-29.1V438.7
		C720.9,422.7,707.9,409.7,691.9,409.7z"/>
</g>
</svg>
