<?xml version="1.0" encoding="utf-8"?>
<!-- Generator: Adobe Illustrator 18.0.0, SVG Export Plug-In . SVG Version: 6.00 Build 0)  -->
<!DOCTYPE svg PUBLIC "-//W3C//DTD SVG 1.1//EN" "http://www.w3.org/Graphics/SVG/1.1/DTD/svg11.dtd">
<svg version="1.1" id="Layer_1" xmlns="http://www.w3.org/2000/svg" xmlns:xlink="http://www.w3.org/1999/xlink" x="0px" y="0px"
	 viewBox="0 0 1000 1000" enable-background="new 0 0 1000 1000" xml:space="preserve">
<g>
	<path fill="#224364" d="M500,1000c276.2,0,500-223.9,500-500S776.2,0,500,0C223.9,0,0,223.9,0,500S223.9,1000,500,1000"/>
	<path fill="#FFFFFF" d="M736.2,277.3c-38.1-12.4-91.9-22.8-146.8-22.8c-223.3,0-325.6,169.1-325.6,327.6
		c0,98,55.8,163.3,137.7,163.3c53,0,111.7-25.9,153.5-103.8h1.9c-1.9,33.7-6.2,65.3-7.2,93.2H674c-1.9-58.5,7.4-150.8,18.6-211.4
		L736.2,277.3z M568.9,471.7C547.5,587,496.4,640.4,456.4,640.4c-37.2,0-53-38-53-84.1c0-87.4,59.8-199.2,146.2-199.2
		c13.9,0,29.5,4.1,39.8,6L568.9,471.7z"/>
</g>
</svg>
