<?xml version="1.0" encoding="utf-8"?>
<!-- Generator: Adobe Illustrator 18.0.0, SVG Export Plug-In . SVG Version: 6.00 Build 0)  -->
<!DOCTYPE svg PUBLIC "-//W3C//DTD SVG 1.1//EN" "http://www.w3.org/Graphics/SVG/1.1/DTD/svg11.dtd">
<svg version="1.1" id="Layer_1" xmlns="http://www.w3.org/2000/svg" xmlns:xlink="http://www.w3.org/1999/xlink" x="0px" y="0px"
	 viewBox="0 0 1000 1000" enable-background="new 0 0 1000 1000" xml:space="preserve">
<g>
	<path fill="#ED2224" d="M500,1000c276.2,0,500-223.9,500-500S776.2,0,500,0C223.8,0,0,223.9,0,500S223.8,1000,500,1000"/>
	<path fill="#FFFFFF" d="M554.9,360.2c106.3,0,194.5,88.1,194.5,194.5c0,105.9-88.6,194.4-194.5,194.4H444.6
		c-105.8,0-194.6-88.7-194.6-194.4V295.1c0-24.7,20.4-45.1,45.1-45.1c24.6,0,45.1,20.5,45.1,45.1c0,86.5,0.1,173,0.1,259.6
		c0,56.9,47.3,104.2,104.2,104.2h110.3c56.7,0,104.2-47.5,104.2-104.2c0-57-47.3-104.2-104.2-104.2h-119
		c-24.7,0-45.1-20.4-45.1-45.1c0-24.6,20.5-45.1,45.1-45.1H554.9L554.9,360.2z"/>
</g>
</svg>
