<?xml version="1.0" encoding="utf-8"?>
<!-- Generator: Adobe Illustrator 18.0.0, SVG Export Plug-In . SVG Version: 6.00 Build 0)  -->
<!DOCTYPE svg PUBLIC "-//W3C//DTD SVG 1.1//EN" "http://www.w3.org/Graphics/SVG/1.1/DTD/svg11.dtd">
<svg version="1.1" id="Layer_1" xmlns="http://www.w3.org/2000/svg" xmlns:xlink="http://www.w3.org/1999/xlink" x="0px" y="0px"
	 viewBox="0 0 1000 1000" enable-background="new 0 0 1000 1000" xml:space="preserve">
<g>
	<path fill="#010101" d="M500,1000c276.2,0,500-223.9,500-500C1000,223.9,776.2,0,500,0C223.8,0,0,223.9,0,500
		C0,776.1,223.8,1000,500,1000"/>
	<path fill="#FFFFFF" d="M479.4,374.5c9.4,13.2,14.2,28.9,14.2,47.2c0,18.8-4.7,34-14.3,45.5c-5.4,6.4-13.2,12.3-23.6,17.6
		c15.8,5.8,27.6,14.9,35.7,27.3c8,12.4,12,27.5,12,45.3c0,18.3-4.6,34.8-13.8,49.3c-5.8,9.6-13.1,17.7-21.9,24.3
		c-9.8,7.6-21.4,12.7-34.9,15.5c-13.4,2.8-28,4.2-43.7,4.2H250v-309h149.3C437,342.2,463.7,353.1,479.4,374.5z M311.6,395.3v68.2
		h75.1c13.4,0,24.3-2.6,32.7-7.7c8.3-5.1,12.5-14.2,12.5-27.1c0-14.4-5.5-23.9-16.6-28.6c-9.6-3.2-21.7-4.8-36.5-4.8H311.6z
		 M311.6,514.6V597h75c13.4,0,23.9-1.8,31.3-5.4c13.6-6.8,20.3-19.6,20.3-38.6c0-16.1-6.5-27.1-19.7-33.2
		c-7.3-3.3-17.7-5.1-30.9-5.2H311.6z M690.3,426.8c16,7.1,29.1,18.4,39.4,33.8c9.4,13.6,15.5,29.3,18.3,47.2
		c1.6,10.5,2.3,25.6,2,45.4H583.5c1,22.9,8.9,39,23.9,48.2c9.1,5.7,20.1,8.6,32.9,8.6c13.6,0,24.6-3.5,33.1-10.5
		c4.7-3.8,8.8-9,12.3-15.7h61c-1.6,13.5-9,27.3-22.1,41.3c-20.5,22.2-49.1,33.3-85.9,33.3c-30.4,0-57.3-9.3-80.5-28.1
		c-23.3-18.7-34.9-49.2-34.9-91.4c0-39.6,10.5-70,31.4-91.1c21-21.1,48.2-31.7,81.7-31.7C656.4,416,674.3,419.6,690.3,426.8z
		 M600.9,478.4c-8.4,8.7-13.8,20.5-15.9,35.4h103c-1.1-15.9-6.4-27.9-15.9-36.1c-9.6-8.2-21.4-12.3-35.5-12.3
		C621.2,465.3,609.3,469.7,600.9,478.4z M701.9,356H569.5v38.4h132.4V356z"/>
</g>
</svg>
