<?xml version="1.0" encoding="utf-8"?>
<!-- Generator: Adobe Illustrator 18.0.0, SVG Export Plug-In . SVG Version: 6.00 Build 0)  -->
<!DOCTYPE svg PUBLIC "-//W3C//DTD SVG 1.1//EN" "http://www.w3.org/Graphics/SVG/1.1/DTD/svg11.dtd">
<svg version="1.1" id="Layer_1" xmlns="http://www.w3.org/2000/svg" xmlns:xlink="http://www.w3.org/1999/xlink" x="0px" y="0px"
	 viewBox="0 0 1000 1000" enable-background="new 0 0 1000 1000" xml:space="preserve">
<g>
	<path fill="#4D5F52" d="M500,1000c276.1,0,500-223.9,500-500S776.1,0,500,0C223.8,0,0,223.9,0,500S223.8,1000,500,1000"/>
	<path fill="#FFFFFF" d="M431.2,444c113.2-32.6,207.7,34,207.7,34L561,499l-22.4-41.7c-21.1-3.9-45.2-5.1-70.7-0.8l53.1,107.8
		l229.2-66c0,0-83.1-130.5-331-88.4c-1.4,0.3-2.7,0.6-4.2,0.8l-24.1-48.9l-71.4,8.1l29.1,59.5c-150.4,62.1-83.8,208.6-83.8,208.6
		L494.2,572L431.2,444z M326.8,562.2c0,0-22.1-48.8,42.2-90.7l34.2,70.1L326.8,562.2z"/>
</g>
</svg>
