<?xml version="1.0" encoding="utf-8"?>
<!-- Generator: Adobe Illustrator 18.0.0, SVG Export Plug-In . SVG Version: 6.00 Build 0)  -->
<!DOCTYPE svg PUBLIC "-//W3C//DTD SVG 1.1//EN" "http://www.w3.org/Graphics/SVG/1.1/DTD/svg11.dtd">
<svg version="1.1" id="Layer_1" xmlns="http://www.w3.org/2000/svg" xmlns:xlink="http://www.w3.org/1999/xlink" x="0px" y="0px"
	 viewBox="0 0 1000 1000" enable-background="new 0 0 1000 1000" xml:space="preserve">
<g>
	<path fill="#EE3E96" d="M500,1000c276.2,0,500-223.9,500-500C1000,223.9,776.2,0,500,0C223.8,0,0,223.9,0,500
		C0,776.1,223.8,1000,500,1000"/>
	<path fill-rule="evenodd" clip-rule="evenodd" fill="#FFFFFF" d="M744.9,449.7c-3.3-16-8.2-31.9-14.6-47c-6.3-14.8-14-29.1-23-42.5
		c-8.9-13.2-19.2-25.7-30.5-37c-11.3-11.3-23.7-21.6-37-30.5c-13.3-9.1-27.6-16.8-42.4-23.1c-15.1-6.4-30.9-11.3-47-14.6
		c-16.5-3.4-33.4-5.1-50.3-5.1c-16.9,0-33.9,1.7-50.4,5.1c-16.1,3.2-31.9,8.2-47,14.6c-14.8,6.3-29.1,14-42.5,23.1
		c-13.2,8.9-25.7,19.2-37,30.5c-11.3,11.3-21.6,23.7-30.5,37c-9,13.3-16.8,27.6-23.1,42.5c-6.4,15.1-11.3,30.9-14.6,47
		c-3.4,16.4-5.1,33.4-5.1,50.3c0,17,1.7,33.9,5.1,50.4c3.3,16.1,8.2,31.9,14.6,47c6.3,14.8,14,29.1,23.1,42.5
		c8.9,13.2,19.2,25.6,30.5,37c11.3,11.3,23.7,21.5,37,30.5c13.4,9,27.7,16.8,42.5,23.1c15.1,6.4,30.9,11.3,47,14.6
		c16.5,3.4,33.4,5.1,50.4,5.1c16.9,0,33.9-1.7,50.3-5.1c16.1-3.3,31.9-8.2,47-14.6c14.8-6.3,29.1-14,42.4-23.1
		c13.3-8.9,25.7-19.2,37-30.5c11.3-11.3,21.6-23.8,30.5-37c9-13.4,16.8-27.7,23-42.5c6.4-15.1,11.3-30.9,14.6-47
		c3.4-16.4,5.1-33.4,5.1-50.4C750,483,748.3,466.1,744.9,449.7z M713.4,497.9c-3.1-0.7-75.3-16.2-148.7-7c-1.5-3.6-3-7.3-4.6-11
		c-4.5-10.4-9.2-20.8-14.2-31c84.3-34.4,118.5-83.9,118.9-84.5C694.8,400.8,712.9,447.2,713.4,497.9z M641,339.8
		c-0.5,0.8-30.9,47.1-111.6,77.3C493,350,452.9,296.8,449.7,292.5c16.1-3.9,33-6,50.3-6C554,286.5,603.4,306.6,641,339.8z
		 M448.8,292.7C448.8,292.7,448.8,292.7,448.8,292.7c0,0-0.3,0.1-0.7,0.2C448.4,292.8,448.6,292.8,448.8,292.7z M408.9,306.9
		c2.9,3.8,42.3,57.3,79.3,123c-102.5,27.2-191.5,26.2-197.1,26.1C304.9,389.9,349.3,335,408.9,306.9z M286.5,500
		c0-2.3,0.1-4.5,0.2-6.7c3.8,0.1,109.3,2.4,219.2-30.4c6.1,12,12,24.1,17.3,36.3c-2.8,0.8-5.6,1.6-8.4,2.5
		c-115.2,37.2-173.6,140.9-173.6,140.9s0.1,0.1,0.1,0.1C307.2,604.8,286.5,554.8,286.5,500z M500,713.5c-51.7,0-99.1-18.4-136-48.9
		c2.8,2.3,4.8,3.7,4.8,3.7s40.9-89.3,167.5-133.4c0.5-0.2,1-0.3,1.4-0.5c30.1,78.1,42.5,143.5,45.6,162.1
		C557.7,707.5,529.6,713.5,500,713.5z M619.3,677.1c-2.1-12.9-13.5-75.5-41.5-152.5c68.9-11,128.6,7.9,133,9.3
		C701.3,593.4,667.2,644.7,619.3,677.1z"/>
</g>
</svg>
