<?xml version="1.0" encoding="utf-8"?>
<!-- Generator: Adobe Illustrator 18.0.0, SVG Export Plug-In . SVG Version: 6.00 Build 0)  -->
<!DOCTYPE svg PUBLIC "-//W3C//DTD SVG 1.1//EN" "http://www.w3.org/Graphics/SVG/1.1/DTD/svg11.dtd">
<svg version="1.1" id="Layer_1" xmlns="http://www.w3.org/2000/svg" xmlns:xlink="http://www.w3.org/1999/xlink" x="0px" y="0px"
	 viewBox="0 0 1000 1000" enable-background="new 0 0 1000 1000" xml:space="preserve">
<path fill="#2F67B2" d="M500,1000c276.2,0,500-223.9,500-500C1000,223.9,776.2,0,500,0C223.8,0,0,223.9,0,500
	C0,776.1,223.8,1000,500,1000"/>
<polygon fill="#FFFFFF" points="250,526.4 397.1,622.3 500,536.5 351.7,445 "/>
<polygon fill="#FFFFFF" points="397.1,267.6 250,363.5 351.7,445 500,353.4 "/>
<polygon fill="#FFFFFF" points="750,363.5 602.9,267.6 500,353.4 648.3,445 "/>
<polygon fill="#FFFFFF" points="500,536.5 602.9,622.3 750,526.4 648.3,445 "/>
<polygon fill="#FFFFFF" points="500.3,555 397.1,640.6 352.9,611.7 352.9,644.1 500.3,732.4 647.7,644.1 647.7,611.7 603.5,640.6 
	"/>
</svg>
