<?xml version="1.0" encoding="utf-8"?>
<!-- Generator: Adobe Illustrator 18.0.0, SVG Export Plug-In . SVG Version: 6.00 Build 0)  -->
<!DOCTYPE svg PUBLIC "-//W3C//DTD SVG 1.1//EN" "http://www.w3.org/Graphics/SVG/1.1/DTD/svg11.dtd">
<svg version="1.1" id="Layer_1" xmlns="http://www.w3.org/2000/svg" xmlns:xlink="http://www.w3.org/1999/xlink" x="0px" y="0px"
	 viewBox="0 0 1000 1000" enable-background="new 0 0 1000 1000" xml:space="preserve">
<line fill="none" x1="453" y1="655.6" x2="459.9" y2="655.6"/>
<g>
	<path fill="#EF3C40" d="M500,1000c276.2,0,500-223.9,500-500S776.2,0,500,0C223.8,0,0,223.9,0,500S223.8,1000,500,1000"/>
	<g>
		<g>
			<g>
				<path fill="#FFFFFF" d="M265.9,429.1c-79.2,0-82.3,61.6-81.8,77.6c0,0-3.9,72.1,79.9,72.1c72,0,75.5-45.2,75.5-45.2l-33.1,0.1
					c0,0-6.5,24.9-42.3,24.2c-46.1-0.9-47.9-45.5-47.9-45.5h127.6C343.9,512.4,353.6,429.1,265.9,429.1z M217.3,490.5
					c0,0,2.3-40.4,47.8-40.4c45.4,0,45.4,40.4,45.4,40.4H217.3z"/>
			</g>
		</g>
		<g>
			<g>
				<path fill="#FFFFFF" d="M432.5,429.1c-39.8-0.2-56.9,23.6-56.9,23.6V373h-31.9l0.5,168.3c0,0-0.2,19.6-1.4,32.6h31l1.3-18.9
					c0,0,14.5,23.8,56.7,23.8c42.3,0,75.6-26,76.5-74.3C509.2,456.2,472.3,429.3,432.5,429.1z M425.2,557.3
					c-50.3,0.6-49.5-53.3-49.5-53.3s-1.8-52,49.4-53.3c51.2-1.3,49.5,54.4,49.5,54.4S475.5,556.6,425.2,557.3z"/>
			</g>
		</g>
		<g>
			<g>
				<path fill="#FFFFFF" d="M655.8,540.7c0.1-21.8,0.7-41.2,0-54.9c-0.8-15.9,0.7-54.3-68.1-57.1c0,0-65.9-6-72.7,43h33.7
					c0,0,2.6-22.5,36.8-21.8c32.4,0.6,38.3,16.5,38.1,36c0,0-27.7,0.1-37,0.1c-16.7,0.1-75.1,1.9-80.5,37.5
					c-6.5,42.3,31.3,55.5,60.8,55.3c29.5-0.2,46.4-9,58.9-24.9l1.3,19.7l29.4-0.2C656.5,573.4,655.7,562.4,655.8,540.7z
					 M572.4,558.4c0,0-32,0-33.9-25.5c-2-27.3,49.2-25.6,49.2-25.6l36.2,0C623.9,507.2,629.8,559.2,572.4,558.4z"/>
			</g>
		</g>
		<polygon fill="#FFFFFF" points="638.4,434.4 675.4,434.4 729.6,542.4 783.8,434.4 817.3,434.4 719.3,626.9 683.5,626.9 
			711.9,573.4 		"/>
	</g>
</g>
</svg>
