<?xml version="1.0" encoding="utf-8"?>
<!-- Generator: Adobe Illustrator 18.0.0, SVG Export Plug-In . SVG Version: 6.00 Build 0)  -->
<!DOCTYPE svg PUBLIC "-//W3C//DTD SVG 1.1//EN" "http://www.w3.org/Graphics/SVG/1.1/DTD/svg11.dtd">
<svg version="1.1" id="Layer_1" xmlns="http://www.w3.org/2000/svg" xmlns:xlink="http://www.w3.org/1999/xlink" x="0px" y="0px"
	 viewBox="0 0 1000 1000" enable-background="new 0 0 1000 1000" xml:space="preserve">
<g>
	<path fill="#34679A" d="M500,1000c276.1,0,500-223.8,500-500C1000,223.9,776.1,0,500,0C223.9,0,0,223.9,0,500
		C0,776.2,223.9,1000,500,1000"/>
	<path fill="#FFFFFF" d="M379.4,415.3h51.7v-50.2c0-22.2,0.6-56.3,16.6-77.5c16.9-22.4,40.2-37.6,80.2-37.6
		c65.2,0,92.7,9.3,92.7,9.3l-12.9,76.6c0,0-21.6-6.2-41.6-6.2c-20.1,0-38.1,7.2-38.1,27.3v58.4h82.4l-5.8,74.8H528V750h-96.9V490.1
		h-51.7V415.3z"/>
</g>
</svg>
