<?xml version="1.0" encoding="utf-8"?>
<!-- Generator: Adobe Illustrator 18.0.0, SVG Export Plug-In . SVG Version: 6.00 Build 0)  -->
<!DOCTYPE svg PUBLIC "-//W3C//DTD SVG 1.1//EN" "http://www.w3.org/Graphics/SVG/1.1/DTD/svg11.dtd">
<svg version="1.1" id="Layer_1" xmlns="http://www.w3.org/2000/svg" xmlns:xlink="http://www.w3.org/1999/xlink" x="0px" y="0px"
	 viewBox="0 0 1000 1000" enable-background="new 0 0 1000 1000" xml:space="preserve">
<g>
	<path fill="#FFFFFF" d="M500,1000c276.1,0,500-223.9,500-500C1000,223.9,776.1,0,500,0C223.9,0,0,223.9,0,500
		C0,776.1,223.9,1000,500,1000"/>
	<path fill="#ED2891" d="M750,500c0,60.8-49.3,110.1-110.1,110.1c-60.9,0-110.2-49.3-110.2-110.1c0-60.8,49.3-110.1,110.2-110.1
		C700.7,389.9,750,439.2,750,500z"/>
	<path fill="#2F67B2" d="M470.3,500c0,60.8-49.3,110.1-110.2,110.1C299.3,610.1,250,560.8,250,500c0-60.8,49.3-110.1,110.1-110.1
		C421,389.9,470.3,439.2,470.3,500z"/>
</g>
</svg>
