<?xml version="1.0" encoding="utf-8"?>
<!-- Generator: Adobe Illustrator 18.0.0, SVG Export Plug-In . SVG Version: 6.00 Build 0)  -->
<!DOCTYPE svg PUBLIC "-//W3C//DTD SVG 1.1//EN" "http://www.w3.org/Graphics/SVG/1.1/DTD/svg11.dtd">
<svg version="1.1" id="Layer_1" xmlns="http://www.w3.org/2000/svg" xmlns:xlink="http://www.w3.org/1999/xlink" x="0px" y="0px"
	 viewBox="0 0 1000 1000" enable-background="new 0 0 1000 1000" xml:space="preserve">
<path fill="#333333" d="M500,1000c276.2,0,500-223.9,500-500C1000,223.9,776.2,0,500,0C223.8,0,0,223.9,0,500
	C0,776.1,223.8,1000,500,1000"/>
<polygon fill="#557EBF" points="425.8,591.7 423.1,591.7 421.7,594 354,712.5 349.9,719.6 358.1,719.6 674,719.6 676.8,719.6 
	678.2,717.2 745.9,598.8 750,591.7 741.8,591.7 "/>
<polygon fill="#FCCE48" points="601.2,561.7 602.6,564.1 605.4,564.1 741.8,563.5 750,563.5 745.9,556.4 587.9,282.8 586.6,280.4 
	583.8,280.4 447.4,280.9 439.1,281 443.2,288.1 "/>
<polygon fill="#0DA961" points="487.7,422.6 486.3,420.2 417.6,302.4 413.5,295.3 409.4,302.4 251.4,576 250,578.4 251.4,580.8 
	320.1,698.6 324.2,705.7 328.4,698.6 486.3,425 "/>
</svg>
