<?xml version="1.0" encoding="utf-8"?>
<!-- Generator: Adobe Illustrator 18.0.0, SVG Export Plug-In . SVG Version: 6.00 Build 0)  -->
<!DOCTYPE svg PUBLIC "-//W3C//DTD SVG 1.1//EN" "http://www.w3.org/Graphics/SVG/1.1/DTD/svg11.dtd">
<svg version="1.1" id="Layer_1" xmlns="http://www.w3.org/2000/svg" xmlns:xlink="http://www.w3.org/1999/xlink" x="0px" y="0px"
	 viewBox="0 0 1000 1000" enable-background="new 0 0 1000 1000" xml:space="preserve">
<line fill="none" x1="453" y1="655.6" x2="459.9" y2="655.6"/>
<line fill="none" x1="-47" y1="271" x2="-49" y2="273"/>
<g>
	<path fill="#0F78B6" d="M500,1000c276.2,0,500-223.9,500-500S776.2,0,500,0C223.8,0,0,223.9,0,500S223.8,1000,500,1000"/>
	<path fill="#FFFFFF" d="M360.1,709.1h-97.5V397.2h97.5V709.1z M308.9,358.2h-0.7c-35.3,0-58.1-23.9-58.1-54.1
		c0-30.8,23.5-54.2,59.5-54.2c35.9,0,58,23.3,58.7,54.1C368.3,334.3,345.5,358.2,308.9,358.2z M750,709.1H639.5V547.7
		c0-42.3-17.2-71.1-55.3-71.1c-29.1,0-45.2,19.5-52.8,38.2c-2.8,6.7-2.4,16.1-2.4,25.5v168.8H419.6c0,0,1.4-285.9,0-311.9h109.5v49
		c6.5-21.4,41.4-51.9,97.3-51.9c69.3,0,123.7,44.8,123.7,141.5V709.1z"/>
</g>
</svg>
