<?xml version="1.0" encoding="utf-8"?>
<!-- Generator: Adobe Illustrator 18.0.0, SVG Export Plug-In . SVG Version: 6.00 Build 0)  -->
<!DOCTYPE svg PUBLIC "-//W3C//DTD SVG 1.1//EN" "http://www.w3.org/Graphics/SVG/1.1/DTD/svg11.dtd">
<svg version="1.1" id="Layer_1" xmlns="http://www.w3.org/2000/svg" xmlns:xlink="http://www.w3.org/1999/xlink" x="0px" y="0px"
	 viewBox="0 0 1000 1000" enable-background="new 0 0 1000 1000" xml:space="preserve">
<line fill="none" x1="453" y1="655.6" x2="459.9" y2="655.6"/>
<g>
	<path fill="#19457E" d="M500,1000c276.2,0,500-223.9,500-500S776.2,0,500,0C223.8,0,0,223.9,0,500S223.8,1000,500,1000"/>
	<path fill="#FFFFFF" d="M749.8,373c-1.1-21-6.7-39.1-15.3-54.4c-25-44.6-76.1-65.6-122.7-65.6H361.1L250,747h147.2l35.9-163.5
		h105.3c1.1,0,2.4-0.2,3.7-0.2c59.7-1,113.4-23.2,151.5-62.8c24.8-26,43.1-59.3,52-99.2C749.3,403.8,750.5,387.6,749.8,373z
		 M607.4,421.3c-4,16.3-13.3,31.2-25.6,42.9c-4.4,4.2-9.4,7.9-14.6,11.2c-13.3,8.3-28.6,13.5-43.9,13.5h-69l29.2-125.3l2.4-9.9h72
		c12.4,0,23.3,3.7,32.1,9.9C606.2,375.4,614.3,396.6,607.4,421.3z"/>
</g>
</svg>
