<?xml version="1.0" encoding="utf-8"?>
<!-- Generator: Adobe Illustrator 18.0.0, SVG Export Plug-In . SVG Version: 6.00 Build 0)  -->
<!DOCTYPE svg PUBLIC "-//W3C//DTD SVG 1.1//EN" "http://www.w3.org/Graphics/SVG/1.1/DTD/svg11.dtd">
<svg version="1.1" id="Layer_1" xmlns="http://www.w3.org/2000/svg" xmlns:xlink="http://www.w3.org/1999/xlink" x="0px" y="0px"
	 viewBox="0 0 1000 1000" enable-background="new 0 0 1000 1000" xml:space="preserve">
<line fill="none" x1="453" y1="655.6" x2="459.9" y2="655.6"/>
<line fill="none" x1="-47" y1="271" x2="-49" y2="273"/>
<g>
	<path fill="#CC3533" d="M500,1000c276.1,0,500-223.8,500-500C1000,223.9,776.1,0,500,0C223.9,0,0,223.9,0,500
		C0,776.2,223.9,1000,500,1000"/>
	<path fill="#FFFFFF" d="M500,248.7c-138.1,0-250,111.9-250,250c0,102.4,61.6,190.3,149.7,229c-0.7-17.5-0.1-38.4,4.3-57.4
		C408.8,650,436.2,534,436.2,534s-8-16-8-39.5c0-37.1,21.5-64.7,48.2-64.7c22.7,0,33.7,17.1,33.7,37.5c0,22.9-14.6,57.1-22.1,88.7
		c-6.3,26.5,13.3,48.2,39.4,48.2c47.4,0,79.3-60.8,79.3-132.9c0-54.8-36.9-95.8-104-95.8c-75.8,0-123.1,56.5-123.1,119.7
		c0,21.8,6.4,37.2,16.5,49c4.6,5.5,5.3,7.7,3.6,13.9c-1.2,4.6-3.9,15.7-5.1,20.1c-1.7,6.3-6.8,8.6-12.5,6.3
		c-34.9-14.3-51.2-52.5-51.2-95.5c0-71,59.9-156.2,178.6-156.2c95.5,0,158.3,69.1,158.3,143.2c0,98.1-54.5,171.3-134.9,171.3
		c-27,0-52.4-14.6-61-31.2c0,0-14.5,57.6-17.6,68.7c-5.3,19.2-15.7,38.5-25.2,53.5c22.5,6.7,46.2,10.3,70.8,10.3
		c138.1,0,250-111.9,250-250C750,360.6,638.1,248.7,500,248.7"/>
</g>
</svg>
