<?xml version="1.0" encoding="utf-8"?>
<!-- Generator: Adobe Illustrator 18.0.0, SVG Export Plug-In . SVG Version: 6.00 Build 0)  -->
<!DOCTYPE svg PUBLIC "-//W3C//DTD SVG 1.1//EN" "http://www.w3.org/Graphics/SVG/1.1/DTD/svg11.dtd">
<svg version="1.1" id="Layer_1" xmlns="http://www.w3.org/2000/svg" xmlns:xlink="http://www.w3.org/1999/xlink" x="0px" y="0px"
	 viewBox="0 0 1000 1000" enable-background="new 0 0 1000 1000" xml:space="preserve">
<g>
	<path fill="#CEE3F5" d="M500.1,1000.1c276.2,0,500-223.9,500-500S776.3,0,500.1,0C223.9,0,0,223.9,0,500S223.9,1000.1,500.1,1000.1
		L500.1,1000.1z"/>
	<path fill="#010101" d="M792.1,499.5c0-36.4-29.5-65.9-66-65.9c-17.9,0-34,6.9-45.9,18.3c-45-29.6-105.6-48.6-173-51.3l1.1-3.5
		l35.6-112.5l96.8,22.5l3.1,0.9c-0.1,0.6-0.1,0.8-0.1,1.5c0,29.8,24.1,54,53.9,54c29.9,0,54-24.3,54-54c0-30-24.1-54.1-54-54.1
		c-22.8,0-42.5,14.4-50.3,34.5l-107.6-25.3c-4.6-1.3-9.4,1.4-10.9,6.3l-41,129.6c-70.6,0.8-134.5,20-181.4,50.5
		c-11.9-10.9-27.5-17.4-45-17.4c-36.3,0-65.9,29.5-65.9,65.9c0,24,13.1,45.5,32.5,57c-1.3,6.7-1.9,13.9-1.9,21.1
		c0,97.8,119.4,177.1,266.4,177.1c146.9,0,266.4-79.4,266.4-177.1c0-6.9-0.5-13.4-1.6-19.8C777.9,546.4,792.1,524.5,792.1,499.5z
		 M697.6,274c19.6,0,35.5,15.9,35.5,35.5c0,19.4-15.9,35.3-35.5,35.3s-35.6-15.9-35.6-35.3C661.9,289.8,677.9,274,697.6,274z
		 M214,499.5c0-26.1,21.3-47.6,47.4-47.6c11.1,0,21.3,4,29.3,10.3c-27.6,21.3-47.9,47.1-57.6,75.5C221.4,528.9,214,515,214,499.5z
		 M492.5,736.4c-136.8,0-247.9-71.5-247.9-158.8c0-4.9,0.4-9.4,1-14.1c0.4-3.1,1-6,1.6-8.9c0.8-3.3,1.4-6.3,2.4-9.1
		c8.5-26.3,27-49.9,53-69.8c2.4-2,4.9-3.9,7.4-5.4c2.5-1.9,5.1-3.5,7.8-5.2c44.9-28.4,106.4-46,174.8-46c69,0,131.4,18,176.5,47
		c2.6,1.8,5.3,3.4,7.8,5.4c2.5,1.6,5,3.4,7.4,5.5c25.3,19.8,43.4,43.1,51.4,69.3c0.9,2.9,1.8,5.6,2.4,8.7c0.8,3,1.3,6,1.5,9.3
		c0.8,4.4,1,8.8,1,13.4C740.4,664.9,629.3,736.4,492.5,736.4z M752.6,538.9c-9.5-28.5-29.5-54.5-57.1-75.8c8.3-7,19-11.2,30.6-11.2
		c26.3,0,47.5,21.5,47.5,47.6C773.6,515.7,765.2,530.4,752.6,538.9z"/>
	<path fill="#010101" d="M442.5,544.7c0,21.8-17.6,39.4-39.4,39.4c-21.6,0-39.3-17.6-39.3-39.4c0-21.6,17.6-39.1,39.3-39.1
		C424.9,505.6,442.5,523.1,442.5,544.7z"/>
	<path fill="#010101" d="M623.8,544.7c0,21.8-17.6,39.4-39.4,39.4c-21.6,0-39.3-17.6-39.3-39.4c0-21.6,17.6-39.1,39.3-39.1
		C606.2,505.6,623.8,523.1,623.8,544.7z"/>
	<path fill="#010101" d="M589.2,662.2c-19.9,19.6-51,30.1-95,30.1h-0.6c-44.3,0-75.4-9.5-95.3-29.3c-3.5-3.6-3.5-9.4,0-12.9
		c3.8-3.8,9.6-1.9,13.1,1.9c16.1,16.1,43.1,27.8,82.1,27.8h0.6c39,0,65.8-11.6,81.9-27.8c3.8-3.8,9.6-5.3,13.1-1.5
		C592.9,654.1,592.9,658.5,589.2,662.2z"/>
</g>
</svg>
