<?xml version="1.0" encoding="utf-8"?>
<!-- Generator: Adobe Illustrator 18.0.0, SVG Export Plug-In . SVG Version: 6.00 Build 0)  -->
<!DOCTYPE svg PUBLIC "-//W3C//DTD SVG 1.1//EN" "http://www.w3.org/Graphics/SVG/1.1/DTD/svg11.dtd">
<svg version="1.1" id="Layer_1" xmlns="http://www.w3.org/2000/svg" xmlns:xlink="http://www.w3.org/1999/xlink" x="0px" y="0px"
	 viewBox="0 0 1000 1000" enable-background="new 0 0 1000 1000" xml:space="preserve">
<g>
	<path fill="#1F9DD9" d="M500,1000c276.1,0,500-223.9,500-500S776.1,0,500,0C223.8,0,0,223.9,0,500S223.8,1000,500,1000"/>
	<path fill="#FFFFFF" d="M735.6,553.9c3.6-16.5,5.5-33.6,5.5-51.2c0-131.7-106.8-238.5-238.5-238.5c-13.9,0-27.5,1.2-40.8,3.5
		c-21.3-13.4-46.5-21.3-73.6-21.3c-76.4,0-138.3,61.9-138.3,138.3c0,25.5,6.9,49.4,19,69.9c-3.2,15.5-4.8,31.6-4.8,47.9
		c0,131.8,106.8,238.5,238.5,238.5c14.9,0,29.5-1.4,43.7-4c19.5,10.5,41.7,16.4,65.4,16.4c76.4,0,138.3-61.9,138.3-138.3
		C750,593.2,744.8,572.4,735.6,553.9z M625,616.6c-11,15.6-27.3,28-48.5,36.8c-20.9,8.7-46,13.1-74.5,13.1c-34.3,0-63-6-85.4-17.9
		c-16-8.7-29.2-20.4-39.3-34.9c-10.1-14.6-15.2-29.1-15.2-43.1c0-8.7,3.4-16.3,9.9-22.5c6.5-6.2,14.9-9.3,24.9-9.3
		c8.2,0,15.3,2.5,21,7.3c5.5,4.7,10.2,11.6,14,20.4c4.2,9.7,8.8,17.9,13.7,24.3c4.7,6.2,11.4,11.4,20,15.5
		c8.7,4.1,20.3,6.2,34.7,6.2c19.7,0,35.9-4.2,48-12.5c11.9-8.1,17.7-17.9,17.7-29.7c0-9.4-3-16.8-9.2-22.6
		c-6.5-6.1-15-10.8-25.4-14.1c-10.9-3.3-25.6-7-43.8-10.9c-24.7-5.3-45.8-11.5-62.5-18.7c-17.1-7.3-30.9-17.4-41-30
		c-10.2-12.9-15.4-28.9-15.4-47.8c0-18,5.5-34.2,16.2-48.2c10.7-13.9,26.2-24.8,46.3-32.1c19.8-7.3,43.3-11.1,70-11.1
		c21.3,0,40,2.5,55.6,7.3c15.7,4.9,29,11.5,39.4,19.6c10.5,8.2,18.3,16.9,23.2,26c4.9,9.2,7.5,18.3,7.5,27.2c0,8.6-3.3,16.3-9.8,23
		c-6.5,6.8-14.8,10.2-24.5,10.2c-8.9,0-15.7-2.2-20.5-6.4c-4.4-4-9.1-10.1-14.2-19c-5.9-11.3-13.2-20.2-21.4-26.5
		c-8-6.1-21.4-9.2-39.8-9.2c-17.1,0-31,3.4-41.3,10.2c-10,6.5-14.8,14-14.8,22.9c0,5.4,1.5,10,4.8,13.9c3.4,4.2,8.2,7.8,14.2,10.8
		c6.3,3.1,12.7,5.7,19.2,7.5c6.6,1.8,17.7,4.5,33,8.1c19.3,4.1,37.1,8.8,52.7,13.8c15.9,5.1,29.6,11.3,40.8,18.7
		c11.4,7.4,20.5,16.9,26.9,28.4c6.5,11.5,9.7,25.6,9.7,42C641.7,583.1,636,601,625,616.6z"/>
</g>
</svg>
