<?xml version="1.0" encoding="utf-8"?>
<!-- Generator: Adobe Illustrator 18.0.0, SVG Export Plug-In . SVG Version: 6.00 Build 0)  -->
<!DOCTYPE svg PUBLIC "-//W3C//DTD SVG 1.1//EN" "http://www.w3.org/Graphics/SVG/1.1/DTD/svg11.dtd">
<svg version="1.1" id="Layer_1" xmlns="http://www.w3.org/2000/svg" xmlns:xlink="http://www.w3.org/1999/xlink" x="0px" y="0px"
	 viewBox="0 0 1000 1000" enable-background="new 0 0 1000 1000" xml:space="preserve">
<g>
	<g id="XMLID_1_">
		<g>
			<path fill="#EF4123" d="M500,0c276.2,0,500,223.9,500,500c0,276.1-223.8,500-500,500C223.8,1000,0,776.1,0,500
				C0,223.9,223.8,0,500,0z"/>
		</g>
		<g>
		</g>
	</g>
	<path fill="#FFFFFF" d="M274.1,581c1.1,0,2-0.8,2.1-2l5.6-43.9l-5.6-44.9c-0.2-1.2-1-2-2.1-2c-1,0-1.9,0.9-2.1,2l-4.9,44.9L272,579
		C272.2,580.2,273.1,581,274.1,581z M257.6,562.4L257.6,562.4L257.6,562.4L257.6,562.4z M255.7,564.4c1,0,1.8-0.8,2-2l4.4-27.3
		l-4.4-27.8c-0.1-1.1-1-2-2-2c-1.1,0-1.9,0.8-2,2l-3.6,27.7l3.6,27.3C253.8,563.5,254.6,564.4,255.7,564.4z M296.3,481.8
		c-0.1-1.4-1.2-2.5-2.5-2.5c-1.3,0-2.4,1.1-2.5,2.5c0,0-4.7,53.3-4.7,53.3l4.7,51.3c0.1,1.4,1.2,2.4,2.5,2.4c1.3,0,2.3-1,2.5-2.4
		l5.3-51.4L296.3,481.8z M313.6,591c1.5,0,2.8-1.2,2.9-2.9l0,0l5-53l-5-54.7c-0.1-1.7-1.4-2.9-2.9-2.9c-1.5,0-2.8,1.2-3,2.9
		l-4.4,54.7l4.4,53C310.8,589.7,312,591,313.6,591z M333.5,591.8c1.8,0,3.2-1.4,3.4-3.3l0,0l4.7-53.4l-4.7-50.8
		c-0.1-1.9-1.6-3.3-3.4-3.3c-1.8,0-3.2,1.4-3.4,3.3l-4.2,50.8l4.2,53.4C330.3,590.4,331.8,591.8,333.5,591.8z M361.9,535.1
		l-4.5-82.6c-0.1-2.1-1.8-3.7-3.8-3.7c-2,0-3.7,1.6-3.8,3.7l-3.9,82.6l3.9,53.4c0.1,2.1,1.8,3.7,3.8,3.7c2,0,3.7-1.7,3.8-3.8v0
		L361.9,535.1z M374,592.4c2.2,0,4.1-1.8,4.2-4.2v0l4.1-53.1l-4.1-101.5c-0.1-2.3-2-4.1-4.2-4.1c-2.3,0-4.1,1.8-4.2,4.1l-3.6,101.5
		l3.6,53.1C369.8,590.5,371.7,592.4,374,592.4z M394.4,420.6c-2.5,0-4.5,2-4.7,4.6l-3.4,110l3.4,52.5c0.1,2.6,2.1,4.6,4.7,4.6
		c2.5,0,4.5-2,4.6-4.6v0l3.8-52.5l-3.8-110C398.9,422.6,396.9,420.6,394.4,420.6z M415,592.4c2.8,0,5-2.2,5.1-5v0l3.6-52.2
		l-3.6-113.7c-0.1-2.8-2.3-5-5.1-5c-2.7,0-5,2.2-5,5l-3.2,113.7l3.2,52.2C410,590.2,412.3,592.4,415,592.4z M435.8,592.3
		c3,0,5.4-2.4,5.5-5.5v0l3.3-51.7l-3.3-110.8c-0.1-3-2.5-5.5-5.5-5.5c-3,0-5.5,2.4-5.5,5.5l-2.9,110.8l2.9,51.7
		C430.3,589.9,432.8,592.3,435.8,592.3z M465.6,535.2l-3-106.8c-0.1-3.3-2.7-5.8-5.9-5.8c-3.2,0-5.8,2.6-5.9,5.9l-2.6,106.8
		l2.6,51.4c0.1,3.2,2.7,5.8,5.9,5.8c3.3,0,5.9-2.6,5.9-5.9v0.1L465.6,535.2z M477.8,592.5c3.4,0,6.3-2.8,6.3-6.3v0l2.7-51
		l-2.7-127.1c-0.1-3.5-2.9-6.3-6.3-6.3c-3.4,0-6.3,2.8-6.3,6.3l-2.4,127c0,0.1,2.4,51.1,2.4,51.1
		C471.5,589.7,474.4,592.5,477.8,592.5z M498.8,389.9c-3.7,0-6.7,3-6.8,6.8l-2.8,138.5l2.8,50.3c0.1,3.6,3.1,6.7,6.8,6.7
		c3.7,0,6.7-3.1,6.8-6.8v0.1l3.1-50.3l-3.1-138.6C505.5,392.9,502.5,389.9,498.8,389.9z M518,592.6c0.2,0,169.4,0.1,170.5,0.1
		c34,0,61.5-27.5,61.5-61.5c0-34-27.5-61.5-61.5-61.5c-8.4,0-16.5,1.7-23.8,4.8c-4.9-55.4-51.4-98.9-108.1-98.9
		c-13.9,0-27.4,2.7-39.4,7.3c-4.6,1.8-5.9,3.6-5.9,7.2v195.2C511.4,589,514.4,592.2,518,592.6z"/>
</g>
</svg>
