<?xml version="1.0" encoding="utf-8"?>
<!-- Generator: Adobe Illustrator 18.0.0, SVG Export Plug-In . SVG Version: 6.00 Build 0)  -->
<!DOCTYPE svg PUBLIC "-//W3C//DTD SVG 1.1//EN" "http://www.w3.org/Graphics/SVG/1.1/DTD/svg11.dtd">
<svg version="1.1" id="Layer_1" xmlns="http://www.w3.org/2000/svg" xmlns:xlink="http://www.w3.org/1999/xlink" x="0px" y="0px"
	 viewBox="0 0 1000 1000" enable-background="new 0 0 1000 1000" xml:space="preserve">
<g>
	<path fill="#37465D" d="M500,1000c276.1,0,500-223.9,500-500C1000,223.9,776.1,0,500,0C223.9,0,0,223.9,0,500
		C0,776.1,223.9,1000,500,1000"/>
	<path fill="#FFFFFF" d="M505.4,250v126.4H624v78.5H505.4v128.2c0,29,1.5,47.6,4.6,55.8c3,8.3,8.8,14.8,17.2,19.8
		c11,6.6,23.7,9.9,37.9,9.9c25.3,0,50.5-8.3,75.5-24.7v78.9c-21.4,10-40.7,17.1-58,21.1c-17.3,4.1-36.1,6.1-56.2,6.1
		c-22.9,0-43.1-2.9-60.6-8.6c-17.5-5.8-32.6-14-44.9-24.7c-12.4-10.7-21-22.1-25.8-34.1c-4.8-12-7.2-29.5-7.2-52.3V454.9h-55.3
		v-70.7c19.7-6.4,36.5-15.6,50.5-27.4c14-11.9,25.3-26.2,33.7-43c8.5-16.7,14.3-37.9,17.5-63.7H505.4z"/>
</g>
</svg>
