<?xml version="1.0" encoding="utf-8"?>
<!-- Generator: Adobe Illustrator 18.0.0, SVG Export Plug-In . SVG Version: 6.00 Build 0)  -->
<!DOCTYPE svg PUBLIC "-//W3C//DTD SVG 1.1//EN" "http://www.w3.org/Graphics/SVG/1.1/DTD/svg11.dtd">
<svg version="1.1" id="Layer_1" xmlns="http://www.w3.org/2000/svg" xmlns:xlink="http://www.w3.org/1999/xlink" x="0px" y="0px"
	 viewBox="0 0 1000 1000" enable-background="new 0 0 1000 1000" xml:space="preserve">
<g>
	<path fill="#26ADE3" d="M500,1000c276.1,0,500-223.9,500-500C1000,223.9,776.1,0,500,0C223.9,0,0,223.9,0,500
		C0,776.1,223.9,1000,500,1000"/>
	<path fill="#FFFFFF" d="M749.7,395.6c-2.2,48.6-36.2,115.1-101.9,199.4c-68,88.2-125.6,132.3-172.6,132.3
		c-29.1,0-53.8-26.8-73.9-80.6c-13.5-49.4-26.9-98.7-40.4-147.9c-15-53.8-31-80.7-48.2-80.7c-3.7,0-16.8,7.8-39.2,23.6L250,411.3
		c24.6-21.6,48.9-43.3,72.9-64.9c32.8-28.4,57.5-43.3,74-44.9c38.8-3.8,62.7,22.8,71.7,79.5c9.6,61.3,16.4,99.4,20.1,114.4
		c11.2,50.8,23.5,76.1,37,76.1c10.4,0,26.1-16.4,47-49.2c20.9-32.9,32.1-57.9,33.6-75.1c3-28.4-8.2-42.5-33.6-42.5
		c-11.9,0-24.3,2.5-37,7.8c24.7-80,71.7-118.8,141.2-116.5C728.4,297.4,752.7,330.7,749.7,395.6z"/>
</g>
</svg>
