<?xml version="1.0" encoding="utf-8"?>
<!-- Generator: Adobe Illustrator 18.0.0, SVG Export Plug-In . SVG Version: 6.00 Build 0)  -->
<!DOCTYPE svg PUBLIC "-//W3C//DTD SVG 1.1//EN" "http://www.w3.org/Graphics/SVG/1.1/DTD/svg11.dtd">
<svg version="1.1" id="Layer_1" xmlns="http://www.w3.org/2000/svg" xmlns:xlink="http://www.w3.org/1999/xlink" x="0px" y="0px"
	 viewBox="0 0 1000 1000" enable-background="new 0 0 1000 1000" xml:space="preserve">
<g>
	<path fill="#59BE94" d="M500,999.9c276.1,0,500-223.9,500-500S776.1,0,500,0C223.9,0,0,223.9,0,500S223.9,999.9,500,999.9"/>
	<path fill="#FFFFFF" d="M278.5,329.4c0,0,48.7,327.4,189.6,413.6c19.3,11.2,41.1,10.6,55.7-2c58.8-50.7,119.7-136.1,136.9-175.6
		c32.4,3.1,54.7-4.8,54.7-4.8l-0.2-62.5c0,0-47.5,0.9-56.5,1c-68.9,1-116.4-82.6-88.4-153.2c19.4-48.9,53.5-13.7,59.6,1.5
		c6.1,15.2,4.7,55.9-4.1,85.8c10.8,25.2,69.4,38.5,82.7,17.5c16.5-46.3,23.6-129.5-19-172.7c-28.1-28.5-98.8-42.9-150.5-10.5
		c-51.7,32.4-50.7,101.4-46.6,135.8c4.1,34.5,15.2,107.5,84.1,148c6.1,7.1-75.6,113.1-80.1,108.5
		C395.1,555.4,367.7,330.4,367.7,330.4L278.5,329.4z"/>
</g>
</svg>
