<?xml version="1.0" encoding="utf-8"?>
<!-- Generator: Adobe Illustrator 18.0.0, SVG Export Plug-In . SVG Version: 6.00 Build 0)  -->
<!DOCTYPE svg PUBLIC "-//W3C//DTD SVG 1.1//EN" "http://www.w3.org/Graphics/SVG/1.1/DTD/svg11.dtd">
<svg version="1.1" id="Layer_1" xmlns="http://www.w3.org/2000/svg" xmlns:xlink="http://www.w3.org/1999/xlink" x="0px" y="0px"
	 viewBox="0 0 1000 1000" enable-background="new 0 0 1000 1000" xml:space="preserve">
<line fill="none" x1="453" y1="655.6" x2="459.9" y2="655.6"/>
<line fill="none" x1="-47" y1="271" x2="-49" y2="273"/>
<g>
	<path fill="#2DABE2" d="M500,1000c276.2,0,500-223.9,500-500S776.2,0,500,0C223.8,0,0,223.9,0,500S223.8,1000,500,1000"/>
	<path id="path13" sodipodi:nodetypes="cccccccccccccccccccc" inkscape:connector-curvature="0" fill="#FFFFFF" d="M268.5,345.5
		l189.1-25.7l0.1,182.4l-189,1.1L268.5,345.5z M457.5,523.1l0.1,182.5l-189-26l0-157.8L457.5,523.1z M480.4,316.3l250.7-36.6v220
		l-250.7,2V316.3z M731.2,524.8l-0.1,219l-250.7-35.4l-0.3-184L731.2,524.8z"/>
</g>
</svg>
