<?xml version="1.0" encoding="utf-8"?>
<!-- Generator: Adobe Illustrator 18.0.0, SVG Export Plug-In . SVG Version: 6.00 Build 0)  -->
<!DOCTYPE svg PUBLIC "-//W3C//DTD SVG 1.1//EN" "http://www.w3.org/Graphics/SVG/1.1/DTD/svg11.dtd">
<svg version="1.1" id="Layer_1" xmlns="http://www.w3.org/2000/svg" xmlns:xlink="http://www.w3.org/1999/xlink" x="0px" y="0px"
	 viewBox="0 0 1000 1000" enable-background="new 0 0 1000 1000" xml:space="preserve">
<g>
	<path fill="#333333" d="M500,1000c276.1,0,500-223.9,500-500S776.1,0,500,0C223.8,0,0,223.9,0,500S223.8,1000,500,1000"/>
	<path fill="#FFFFFF" d="M250,500c0,98.9,57.5,184.5,140.9,225L271.7,398.2C257.8,429.3,250,463.7,250,500z M668.8,487.4
		c0-30.9-11.1-52.3-20.6-69c-12.6-20.6-24.5-38-24.5-58.6c0-23,17.4-44.4,42-44.4c1.1,0,2.1,0.1,3.2,0.2
		C624.4,274.9,565.1,250,500,250c-87.4,0-164.2,44.8-208.9,112.7c5.9,0.2,11.4,0.3,16.1,0.3c26.2,0,66.6-3.2,66.6-3.2
		c13.5-0.8,15,19,1.6,20.6c0,0-13.5,1.6-28.6,2.4l91.1,270.8l54.7-164.1l-39-106.7c-13.5-0.8-26.2-2.4-26.2-2.4
		c-13.5-0.8-11.9-21.4,1.6-20.6c0,0,41.3,3.2,65.8,3.2c26.1,0,66.7-3.2,66.7-3.2c13.4-0.8,15,19,1.5,20.6c0,0-13.5,1.6-28.6,2.4
		l90.4,268.7l25-83.3C662.4,535.7,668.8,508.8,668.8,487.4z M504.4,521.9l-75,218c22.4,6.6,46,10.2,70.6,10.2c29.1,0,57-5,83-14.2
		c-0.7-1.1-1.3-2.2-1.8-3.4L504.4,521.9z M719.4,380c1.1,8,1.7,16.5,1.7,25.7c0,25.3-4.8,53.9-19,89.5l-76.3,220.8
		C700,672.8,750,592.2,750,500C750,456.5,738.9,415.7,719.4,380z"/>
</g>
<line fill="none" x1="453" y1="655.6" x2="459.9" y2="655.6"/>
<line fill="none" x1="-47" y1="271" x2="-49" y2="273"/>
</svg>
