<?xml version="1.0" encoding="utf-8"?>
<!-- Generator: Adobe Illustrator 18.0.0, SVG Export Plug-In . SVG Version: 6.00 Build 0)  -->
<!DOCTYPE svg PUBLIC "-//W3C//DTD SVG 1.1//EN" "http://www.w3.org/Graphics/SVG/1.1/DTD/svg11.dtd">
<svg version="1.1" id="Layer_1" xmlns="http://www.w3.org/2000/svg" xmlns:xlink="http://www.w3.org/1999/xlink" x="0px" y="0px"
	 viewBox="0 0 1000 1000" enable-background="new 0 0 1000 1000" xml:space="preserve">
<g>
	<path fill="#CC3533" d="M500,1000c276.1,0,500-223.9,500-500C1000,223.9,776.1,0,500,0C223.8,0,0,223.9,0,500
		C0,776.1,223.8,1000,500,1000"/>
	<path fill="#FFFFFF" d="M597.1,500.2l-163.7,96.1V404.1L597.1,500.2z M750,589.4V410.6c0,0,0-86.2-86.2-86.2H336.1
		c0,0-86.1,0-86.1,86.2v178.8c0,0,0,86.2,86.1,86.2h327.7C663.8,675.5,750,675.5,750,589.4"/>
</g>
</svg>
