<?xml version="1.0" encoding="utf-8"?>
<!-- Generator: Adobe Illustrator 18.0.0, SVG Export Plug-In . SVG Version: 6.00 Build 0)  -->
<!DOCTYPE svg PUBLIC "-//W3C//DTD SVG 1.1//EN" "http://www.w3.org/Graphics/SVG/1.1/DTD/svg11.dtd">
<svg version="1.1" id="Layer_1" xmlns="http://www.w3.org/2000/svg" xmlns:xlink="http://www.w3.org/1999/xlink" x="0px" y="0px"
	 viewBox="0 0 1000 1000" enable-background="new 0 0 1000 1000" xml:space="preserve">
<g>
	<path fill="#CC3533" d="M500,1000c276.1,0,500-223.9,500-500S776.2,0,500,0C223.9,0,0,223.9,0,500S223.9,1000,500,1000"/>
	<path fill="#FFFFFF" d="M602.3,331.1v95.3c-2.3,2.8-5,5-7.8,6.8c-3,1.8-5.3,2.8-7.3,2.8c-2.3,0-4-0.7-5-2c-1.3-1.5-1.8-3.5-1.8-6.5
		v-96.3h-25.7V436c0,7.6,1.5,13.1,4.6,16.9c3,3.8,7.6,5.6,13.4,5.6c5.1,0,9.8-1.3,15.1-3.8c5-2.8,9.8-6.6,14.6-11.8v13.8H628V331.1
		H602.3z M523.9,337.2c-6.8-6.3-15.6-9.3-26.2-9.3c-11.6,0-20.9,3-28,8.8c-6.8,5.8-10.3,13.3-10.3,23.2v65c0,10.8,3.5,19.1,10,25.5
		c6.8,6.3,15.9,9.6,27,9.6c11.6,0,20.9-3,27.5-9.3c6.8-6,10.1-14.4,10.1-25.2v-64.7C534,351,530.5,343.2,523.9,337.2z M507.8,427.4
		c0,3.3-1,5.8-3.1,7.8c-2,2-4.8,3-8.3,3c-3.3,0-6-1-7.8-3c-1.7-1.8-2.8-4.5-2.8-7.8v-68.6c0-2.8,1-5,3-6.5c1.8-1.8,4.5-2.5,7.6-2.5
		c3.3,0,6.1,0.7,8.3,2.5c2,1.5,3.1,3.8,3.1,6.5V427.4z M428.2,286.5l-17.9,68.1h-2l-18.6-68.1h-29.2l34.5,102.8v67.3h29v-70.6
		l33.5-99.5H428.2z M628.5,586.2c1.5,2,2.3,5.5,2.3,10.1v11.6h-19.9v-11.6c0-4.5,0.5-8,2.3-10.1c1.5-2,4-3.3,7.8-3.3
		C624.5,582.9,627,584.2,628.5,586.2z M549.4,585.7c-1.5-2-4-3-7.1-3c-1.5,0-3.3,0.3-4.8,1c-1.5,0.8-3.3,2-4.8,3.5v71.1
		c1.8,1.8,3.8,3.3,5.5,4c1.8,0.8,3.5,1.3,5.3,1.3c3,0,5-0.8,6.3-2.5c1.3-1.5,2-4,2-7.8v-58.9C551.9,590.4,551.1,587.7,549.4,585.7z
		 M549.4,585.7c-1.5-2-4-3-7.1-3c-1.5,0-3.3,0.3-4.8,1c-1.5,0.8-3.3,2-4.8,3.5v71.1c1.8,1.8,3.8,3.3,5.5,4c1.8,0.8,3.5,1.3,5.3,1.3
		c3,0,5-0.8,6.3-2.5c1.3-1.5,2-4,2-7.8v-58.9C551.9,590.4,551.1,587.7,549.4,585.7z M678.7,497.7H321.3c-39.1,0-71.3,32.3-71.3,71.6
		v72.9c0,39.3,32.2,71.3,71.3,71.3h357.3c39.1,0,71.3-32,71.3-71.3v-72.9C750,530,717.7,497.7,678.7,497.7z M417.6,547.9h-26.7
		v132.1h-25.7V547.9h-26.5v-22.4h78.9V547.9z M492.7,679.9h-22.9v-12.6c-4,4.8-8.6,8.3-13.1,10.6c-4.5,2.5-8.8,3.8-13.1,3.8
		c-5.3,0-9.3-1.8-12.1-5.3c-2.5-3.3-3.8-8.3-3.8-15.1v-95.5h22.7v87.7c0,2.5,0.5,4.5,1.5,5.8c0.8,1.3,2.5,1.8,4.5,1.8
		c1.7,0,3.8-0.8,6.3-2.5c2.8-1.5,5-3.5,7-6.1v-86.7h22.9V679.9z M575.3,656.2c0,8.1-1.8,14.4-5.3,18.7c-3.5,4.3-8.8,6.5-15.6,6.5
		c-4.6,0-8.4-0.8-11.9-2.5c-3.5-1.8-6.8-4.3-9.8-7.8v8.8h-22.9V525.5h22.9v49.6c3-3.3,6.3-6,9.8-7.8c3.5-1.8,7.1-2.8,10.6-2.8
		c7.1,0,12.6,2.5,16.4,7.3c3.8,4.8,5.8,11.8,5.8,21.2V656.2z M654.5,625.7h-43.6v21.4c0,6,0.5,10.1,2.1,12.4
		c1.5,2.5,4.3,3.5,7.8,3.5c3.8,0,6.3-1,7.8-3c1.5-1.8,2.3-6.3,2.3-12.9v-5.3h23.7v5.8c0,11.9-3,20.7-8.8,26.5
		c-5.5,6-14.1,8.8-25.4,8.8c-10.4,0-18.4-3-24.2-9.3c-5.8-6.3-8.8-14.9-8.8-26v-51.1c0-9.8,3.3-17.9,9.8-24.2
		c6.3-6.1,14.6-9.3,24.9-9.3c10.4,0,18.4,3,23.9,8.8c5.6,5.8,8.6,13.9,8.6,24.7V625.7z M542.3,582.6c-1.5,0-3.3,0.3-4.8,1
		c-1.5,0.8-3.3,2-4.8,3.5v71.1c1.8,1.8,3.8,3.3,5.5,4c1.8,0.8,3.5,1.3,5.3,1.3c3,0,5-0.8,6.3-2.5c1.3-1.5,2-4,2-7.8v-58.9
		c0-3.8-0.8-6.6-2.5-8.6C547.9,583.6,545.3,582.6,542.3,582.6z M549.4,585.7c-1.5-2-4-3-7.1-3c-1.5,0-3.3,0.3-4.8,1
		c-1.5,0.8-3.3,2-4.8,3.5v71.1c1.8,1.8,3.8,3.3,5.5,4c1.8,0.8,3.5,1.3,5.3,1.3c3,0,5-0.8,6.3-2.5c1.3-1.5,2-4,2-7.8v-58.9
		C551.9,590.4,551.1,587.7,549.4,585.7z M549.4,585.7c-1.5-2-4-3-7.1-3c-1.5,0-3.3,0.3-4.8,1c-1.5,0.8-3.3,2-4.8,3.5v71.1
		c1.8,1.8,3.8,3.3,5.5,4c1.8,0.8,3.5,1.3,5.3,1.3c3,0,5-0.8,6.3-2.5c1.3-1.5,2-4,2-7.8v-58.9C551.9,590.4,551.1,587.7,549.4,585.7z"
		/>
</g>
</svg>
